<?xml version="1.0" encoding="UTF-8" standalone="no"?>
<svg
   xmlns:dc="http://purl.org/dc/elements/1.1/"
   xmlns:cc="http://creativecommons.org/ns#"
   xmlns:rdf="http://www.w3.org/1999/02/22-rdf-syntax-ns#"
   xmlns:svg="http://www.w3.org/2000/svg"
   xmlns="http://www.w3.org/2000/svg"
   xmlns:sodipodi="http://sodipodi.sourceforge.net/DTD/sodipodi-0.dtd"
   xmlns:inkscape="http://www.inkscape.org/namespaces/inkscape"
   version="1.2"
   width="50"
   height="50"
   viewBox="24 24 50 50"
   id="svg25932"
   sodipodi:docname="horse-recce.svg"
   inkscape:version="0.92.4 (5da689c313, 2019-01-14)">
  <metadata
     id="metadata25938">
    <rdf:RDF>
      <cc:Work
         rdf:about="">
        <dc:format>image/svg+xml</dc:format>
        <dc:type
           rdf:resource="http://purl.org/dc/dcmitype/StillImage" />
      </cc:Work>
    </rdf:RDF>
  </metadata>
  <defs
     id="defs25936" />
  <sodipodi:namedview
     pagecolor="#ffffff"
     bordercolor="#666666"
     borderopacity="1"
     objecttolerance="10"
     gridtolerance="10"
     guidetolerance="10"
     inkscape:pageopacity="0"
     inkscape:pageshadow="2"
     inkscape:window-width="1920"
     inkscape:window-height="972"
     id="namedview25934"
     showgrid="false"
     inkscape:zoom="8.7830105"
     inkscape:cx="16.84389"
     inkscape:cy="25.004071"
     inkscape:window-x="0"
     inkscape:window-y="27"
     inkscape:window-maximized="1"
     inkscape:current-layer="svg25932" />
  <path
     style="fill:none;fill-opacity:1;stroke:#ff0000;stroke-width:2.86518168;stroke-miterlimit:4;stroke-dasharray:none"
     inkscape:connector-curvature="0"
     d="M 49,26.025989 71.97401,49 49,71.97401 26.025989,49 Z"
     id="path25928" />
  <path
     style="fill:#ff0000;stroke:none;stroke-width:1.27633393"
     inkscape:connector-curvature="0"
     d="m 58.253421,40.320929 c 0,0 -2.010226,0.638167 -2.871751,0.829617 -1.084884,0.223359 -1.56351,0.57435 -2.456943,0.989159 -1.340151,0.606258 -2.169768,1.1487 -3.605643,1.372059 -1.052977,0.159542 -2.456943,0.542442 -3.509919,0.319083 -1.244425,-0.287174 -1.946409,-0.925342 -3.222743,-0.925342 -1.180609,0 -2.361218,-0.191449 -3.382285,0.414809 -0.829617,0.510533 -1.499692,1.34015 -1.850684,2.265492 -0.733892,1.723052 -0.255267,3.988544 -0.382901,5.871137 -0.06382,0.989158 -0.127633,2.967476 -0.191449,3.254652 0,0 0.510533,0 1.084884,-0.797709 0.287175,-0.382901 0.542442,-1.084884 0.606258,-1.56351 0.159542,-0.989159 -0.223358,-2.393126 -0.127634,-3.190834 0.350993,-0.09573 0.7658,0.893433 0.829618,1.499692 0.06382,0.638167 -0.319084,1.052976 -0.446718,1.659234 -0.159541,0.95725 0.09573,1.595418 0.191451,2.648393 0.03191,0.510534 0.255267,1.244425 0.159542,1.9145 -0.06382,0.638168 -0.06382,1.37206 -0.06382,1.37206 h 2.201676 l -0.12763,-1.212518 c 0,0 -0.574351,-0.797708 -0.670076,-1.372059 -0.159541,-0.861525 -0.159541,-1.72305 0.06382,-2.552668 0.159542,-0.638166 0.989159,-1.372058 1.308243,-1.946408 0.574349,-0.989159 0.989158,-2.265493 0.989158,-2.265493 0,0 1.627326,1.084884 2.90366,1.340151 1.212517,0.255266 3.701368,0.446716 3.701368,0.446716 0,0 -0.06382,2.32931 0.03191,3.956635 0,0.03191 0.09573,1.244426 0.09573,0.98916 -0.446716,1.021066 0,2.616484 0,2.616484 0,0 0.925342,0 2.010226,0 l -0.09573,-1.084884 c 0,0 -0.478624,-1.116792 -0.478624,-1.691142 0,-0.989159 0.03191,-1.882593 0.287174,-2.839843 0.127633,-0.3829 0.223359,-0.925342 0.414808,-1.276335 0.446718,-0.701983 0.98916,-1.212517 1.340151,-1.946408 0.350992,-0.829618 0.733892,-1.691143 1.148701,-2.52076 0.510533,-1.052976 2.488851,-2.329309 2.488851,-2.329309 0,0 1.595418,0.925342 2.680301,1.563508 0.382901,0.223359 0.95725,0.03191 1.18061,-0.319083 0.223358,-0.350992 0.255266,-0.701984 0.09572,-1.052975 -1.021066,-2.13786 -2.488851,-2.999385 -2.488851,-2.999385 z"
     id="path25930" />
</svg>
