<?xml version="1.0" encoding="UTF-8" standalone="no"?>
<svg
   xmlns:dc="http://purl.org/dc/elements/1.1/"
   xmlns:cc="http://creativecommons.org/ns#"
   xmlns:rdf="http://www.w3.org/1999/02/22-rdf-syntax-ns#"
   xmlns:svg="http://www.w3.org/2000/svg"
   xmlns="http://www.w3.org/2000/svg"
   xmlns:sodipodi="http://sodipodi.sourceforge.net/DTD/sodipodi-0.dtd"
   xmlns:inkscape="http://www.inkscape.org/namespaces/inkscape"
   version="1.2"
   width="50"
   height="34.300426"
   viewBox="21 46 50 34.300427"
   id="svg12303"
   sodipodi:docname="horse-recce.svg"
   inkscape:version="0.92.4 (5da689c313, 2019-01-14)">
  <metadata
     id="metadata12309">
    <rdf:RDF>
      <cc:Work
         rdf:about="">
        <dc:format>image/svg+xml</dc:format>
        <dc:type
           rdf:resource="http://purl.org/dc/dcmitype/StillImage" />
      </cc:Work>
    </rdf:RDF>
  </metadata>
  <defs
     id="defs12307" />
  <sodipodi:namedview
     pagecolor="#ffffff"
     bordercolor="#666666"
     borderopacity="1"
     objecttolerance="10"
     gridtolerance="10"
     guidetolerance="10"
     inkscape:pageopacity="0"
     inkscape:pageshadow="2"
     inkscape:window-width="1920"
     inkscape:window-height="972"
     id="namedview12305"
     showgrid="false"
     inkscape:zoom="12.361274"
     inkscape:cx="6.4857837"
     inkscape:cy="23.68119"
     inkscape:window-x="0"
     inkscape:window-y="27"
     inkscape:window-maximized="1"
     inkscape:current-layer="svg12303" />
  <path
     style="fill:none;fill-opacity:1;stroke:#3388ff;stroke-width:2.90128112;stroke-miterlimit:4;stroke-dasharray:none;stroke-opacity:1"
     inkscape:connector-curvature="0"
     d="M 22.450641,47.450641 H 69.54936 V 78.849787 H 22.450641 Z"
     id="path12299" />
  <path
     style="fill:#3388ff;fill-opacity:1;stroke:none;stroke-width:1.25596583"
     inkscape:connector-curvature="0"
     d="m 55.105752,54.609646 c 0,0 -1.978146,0.627983 -2.825923,0.816378 -1.067571,0.219794 -1.538558,0.565185 -2.417734,0.973374 -1.318764,0.596583 -2.135142,1.130369 -3.548104,1.350162 -1.036171,0.156996 -2.417734,0.533786 -3.453905,0.313992 -1.224567,-0.282592 -1.915349,-0.910576 -3.171314,-0.910576 -1.161769,0 -2.323537,-0.188394 -3.328309,0.408189 -0.816378,0.502387 -1.47576,1.318765 -1.821151,2.22934 -0.72218,1.695554 -0.251193,3.924894 -0.37679,5.777443 -0.06279,0.973373 -0.125597,2.92012 -0.188395,3.202713 0,0 0.502387,0 1.067571,-0.784979 0.282592,-0.376789 0.533785,-1.067571 0.596583,-1.538558 0.156997,-0.973374 -0.219793,-2.354936 -0.125596,-3.139914 0.345391,-0.09419 0.75358,0.879176 0.816378,1.47576 0.06279,0.627982 -0.313991,1.036171 -0.439588,1.632754 -0.156996,0.941975 0.09419,1.569958 0.188395,2.606129 0.0314,0.502387 0.251193,1.224567 0.156996,1.883949 -0.0628,0.627984 -0.0628,1.350164 -0.0628,1.350164 h 2.166541 l -0.125596,-1.193168 c 0,0 -0.565185,-0.784978 -0.659382,-1.350163 -0.156996,-0.847777 -0.156996,-1.695554 0.0628,-2.511931 0.156996,-0.627983 0.973373,-1.350164 1.287365,-1.915349 0.565184,-0.973373 0.973373,-2.229339 0.973373,-2.229339 0,0 1.601357,1.067571 2.857323,1.318765 1.193168,0.251192 3.6423,0.439587 3.6423,0.439587 0,0 -0.06279,2.292138 0.0314,3.893494 0,0.0314 0.09419,1.224567 0.09419,0.973374 -0.439589,1.004773 0,2.57473 0,2.57473 0,0 0.910575,0 1.978146,0 l -0.09419,-1.067571 c 0,0 -0.470988,-1.09897 -0.470988,-1.664155 0,-0.973373 0.0314,-1.852549 0.282593,-2.794523 0.125596,-0.376791 0.219794,-0.910576 0.408189,-1.255967 0.439589,-0.69078 0.973374,-1.193167 1.318764,-1.915347 0.345391,-0.816378 0.722181,-1.664155 1.13037,-2.480533 0.502386,-1.036172 2.449133,-2.292138 2.449133,-2.292138 0,0 1.569957,0.910575 2.637528,1.538558 0.37679,0.219795 0.941975,0.0314 1.161769,-0.313991 0.219793,-0.345391 0.251193,-0.690781 0.09419,-1.036172 -1.004773,-2.103742 -2.449133,-2.95152 -2.449133,-2.95152 z"
     id="path12301" />
</svg>
